<?xml version="1.0" encoding="UTF-8" standalone="no"?>
<!-- Created with Inkscape (http://www.inkscape.org/) -->

<svg
   width="210mm"
   height="297mm"
   viewBox="0 0 210 297"
   version="1.1"
   id="svg1"
   sodipodi:docname="importante.svg"
   inkscape:version="1.4.2 (f4327f4, 2025-05-13)"
   xmlns:inkscape="http://www.inkscape.org/namespaces/inkscape"
   xmlns:sodipodi="http://sodipodi.sourceforge.net/DTD/sodipodi-0.dtd"
   xmlns="http://www.w3.org/2000/svg"
   xmlns:svg="http://www.w3.org/2000/svg">
  <sodipodi:namedview
     id="namedview1"
     pagecolor="#ffffff"
     bordercolor="#000000"
     borderopacity="0.25"
     inkscape:showpageshadow="2"
     inkscape:pageopacity="0.0"
     inkscape:pagecheckerboard="0"
     inkscape:deskcolor="#d1d1d1"
     inkscape:document-units="mm"
     showguides="true"
     inkscape:zoom="0.71891835"
     inkscape:cx="463.89134"
     inkscape:cy="554.30495"
     inkscape:window-width="1920"
     inkscape:window-height="1009"
     inkscape:window-x="-8"
     inkscape:window-y="-8"
     inkscape:window-maximized="1"
     inkscape:current-layer="svg1">
    <sodipodi:guide
       position="81.334571,298.47213"
       orientation="0,-1"
       id="guide4"
       inkscape:locked="false" />
    <sodipodi:guide
       position="6.6245352,299.94425"
       orientation="0,-1"
       id="guide5"
       inkscape:locked="false" />
    <sodipodi:guide
       position="140.95539,299.94424"
       orientation="0,-1"
       id="guide6"
       inkscape:locked="false" />
  </sodipodi:namedview>
  <defs
     id="defs1" />
  <g
     inkscape:groupmode="layer"
     id="layer2"
     inkscape:label="Camada 2">
    <path
       style="fill:#999999;stroke-width:0.105183"
       d="M 3.869629,65.502948 207.47442,66.077386 206.87822,231.22835 3.273422,232.95166 Z"
       id="path50" />
  </g>
  <g
     inkscape:label="Camada 1"
     inkscape:groupmode="layer"
     id="layer1">
    <path
       style="fill:#000000;stroke-width:0.105183"
       d="m 43.815517,136.87688 c -0.149051,-30.30161 38.455373,-35.04072 38.455373,-35.04072 0,0 -32.195195,8.18573 0,-0.14361 32.19519,-8.329355 52.91339,14.93539 52.91339,14.93539 0,0 34.43097,45.81144 1.34147,70.79949 -33.0895,24.98807 -82.872812,6.74965 -86.450055,-8.47295 -3.577244,-15.22261 -6.260178,-25.70612 -6.260178,-42.0776 z"
       id="path6" />
    <path
       style="fill:#ececec;stroke-width:0.105183"
       d="m 79.198463,102.43976 c 0,0 -40.471893,11.77948 0,0 z"
       id="path7" />
    <path
       style="fill:#f9f9f9;stroke-width:0.105183"
       d="m 82.992704,104.6738 c 0,0 85.159616,36.15084 24.873356,91.39255 -60.286263,55.24171 -27.402849,14.6228 -27.402849,14.6228 L 104.70419,197.6911 c 0,0 -94.012837,-18.8878 -29.299966,-92.20492 C 140.11709,32.169053 161.19621,90.660279 161.19621,90.660279 L 79.620046,106.70475 c 0,0 117.199854,16.24755 33.937364,91.39254 -83.262484,75.14498 -1.47553,9.54544 -1.47553,9.54544 l -0.2108,-12.99804 c 0,0 -136.592635,-125.918619 -40.682678,-85.90899 95.909948,40.00962 104.763178,89.1585 95.909948,40.00962 -8.85322,-49.148881 22.55465,-66.411916 -49.95748,-20.51256 -72.512149,45.89938 -160.833623,44.68081 -62.815757,49.35198 98.017857,4.67117 169.686837,52.3984 94.012837,5.07737 C 72.663939,135.34108 7.318695,102.43976 76.036597,131.27918 144.7545,160.1186 160.77462,97.362401 131.89624,141.23081 103.01786,185.09925 116.2977,250.90188 98.591243,186.31781 80.884793,121.73374 38.72657,84.161256 85.943777,118.07804 c 47.217213,33.91679 91.061753,19.09089 41.315053,45.49319 -49.746695,26.40229 -60.075459,47.32102 -60.28625,22.54349 -0.210792,-24.77754 -14.966169,-17.66923 0.632372,-32.69823 15.598542,-15.029 25.084143,-23.76206 31.618668,-25.99611 6.53452,-2.23404 -4.005032,-17.66922 17.91725,-1.21855 21.92227,16.45066 34.35894,18.07541 32.67262,41.43128 -1.68634,23.35588 3.37265,34.52607 -13.70142,30.46418 -17.07409,-4.06189 -23.39782,4.67117 -34.99133,-14.21663 C 89.527228,164.99287 59.59489,159.50932 92.478305,140.21533 125.36172,120.92137 179.32424,61.211572 132.7394,124.37398 86.154571,187.53637 13.010054,212.11082 84.679032,190.98899 156.34801,169.86715 267.85652,187.13018 159.50987,162.14955 51.163245,137.16893 -3.010073,153.61959 42.52081,133.71633 88.051689,113.81305 122.62144,44.557821 89.527228,111.78211 56.433023,179.00641 53.481948,246.83998 51.795619,187.53637 50.10929,128.23276 -32.099242,113.60996 53.060366,125.18634 138.21997,136.76274 169.20626,187.94257 141.80342,138.99678 114.40058,90.050996 141.17105,45.573292 113.55741,92.89432 85.943777,140.21533 103.01786,173.52286 81.727956,140.82464 60.438055,108.1264 36.407869,110.96974 63.17834,107.31403 c 26.770472,-3.6557 19.814364,-2.64023 19.814364,-2.64023 z"
       id="path8" />
    <path
       style="fill:#666666;stroke-width:0.105183"
       d="m 86.576151,134.73179 c 0,0 -9.274808,-27.21467 -38.15319,-30.05799 -28.878382,-2.84332 24.66256,34.72917 24.66256,34.72917 0,0 -35.834488,-18.07542 -54.173316,-16.45067 -18.33882601,1.62477 43.844552,18.27851 43.844552,18.27851 l -37.310026,-8.12377 21.289902,25.18371 8.220852,-2.03093 7.37769,17.87232 5.058987,-1.01548 2.107911,8.52997 14.544585,-9.54545 16.863292,-12.59186 z"
       id="path9" />
    <path
       style="fill:#000000;stroke-width:0.105183"
       d="m 123.25381,74.412716 -14.75538,24.371345 -17.495663,4.671179 -1.686329,4.87426 12.858252,5.28046 -2.529486,3.85879 11.382716,9.54545 12.43668,13.60734 0.63237,28.43324 -4.6374,11.37327 -14.12301,0.20311 -11.382717,-9.13926 15.387757,-12.59186 -25.294942,-35.74463 2.740288,-1.82786 -14.123007,-9.34236 9.696391,-10.76399 5.058985,0.60928 0.632374,-6.905215 17.917251,-12.185673 1.89712,-4.874267 9.48559,-0.609284 v -4.264985 z"
       id="path13" />
    <path
       style="fill:#4d4d4d;stroke-width:0.105183"
       d="m 121.14589,75.42819 -13.06905,21.52802 -16.441699,4.46808 -6.112944,3.24951 5.90215,9.95164 7.58848,0.20309 -2.529493,5.88974 22.554646,20.51254 1.26475,31.88585 -12.64746,2.03095 -4.8482,-4.0619 10.75034,-11.98256 -24.451762,-32.90132 0.63237,-5.68665 -12.225883,-7.92069 4.637405,-9.74854 5.48057,-0.20309 2.107908,-1.62475 v -4.671183 l 15.598542,-10.560917 5.48057,-6.499024 5.48057,-0.203094 z"
       id="path14" />
    <path
       style="fill:#999999;stroke-width:0.105183"
       d="m 110.18476,103.04904 -3.16187,8.52998 13.27984,6.09283 8.64243,-7.1083 -2.52949,-9.95164 z"
       id="path15" />
    <path
       style="fill:#999999;stroke-width:0.105183"
       d="m 120.72431,121.32755 -4.6374,3.45261 1.47553,0.81239 5.48058,-2.43714 z"
       id="path16" />
    <path
       style="fill:#999999;stroke-width:0.105183"
       d="m 131.89624,120.71827 -3.79424,2.03095 2.3187,2.43712 2.95108,-2.23404 z"
       id="path17" />
    <path
       style="fill:#999999;stroke-width:0.105183"
       d="m 133.37178,110.96974 15.17695,-12.591868 -6.53452,11.373288 -6.74531,5.88974 z"
       id="path18" />
    <path
       style="fill:#999999;stroke-width:0.105183"
       d="m 131.26387,128.43586 -3.16187,4.0619 2.74029,1.62474 4.84819,-1.62474 z"
       id="path19" />
    <path
       style="fill:#999999;stroke-width:0.105183"
       d="m 127.68042,137.77821 2.74028,-0.81237 2.74029,1.21857 -1.47554,1.42164 z"
       id="path20" />
    <path
       style="fill:#999999;stroke-width:0.105183"
       d="m 103.22865,118.48422 21.07911,14.01354 -3.16187,2.84332 z"
       id="path21" />
    <path
       style="fill:#999999;stroke-width:0.105183"
       d="m 77.933718,181.03736 -4.005033,2.23403 8.853226,5.68665 9.907184,-5.48355 z"
       id="path22" />
    <path
       style="fill:#999999;stroke-width:0.105183"
       d="m 53.060366,179.20951 1.264747,14.62278 4.637404,-2.8433 3.161867,-10.35783 z"
       id="path23" />
    <path
       style="fill:#999999;stroke-width:0.105183"
       d="m 99.855996,184.48997 4.848194,17.46611 18.76041,-16.45065 z"
       id="path24" />
    <path
       style="fill:#999999;stroke-width:0.105183"
       d="m 89.316438,191.19208 10.328766,-2.03094 1.686326,6.29593 z"
       id="path25" />
    <path
       style="fill:#999999;stroke-width:0.105183"
       d="m 135.47969,176.36618 -3.58345,4.46808 9.48559,-1.21857 z"
       id="path26" />
    <path
       style="fill:#000000;stroke-width:0.105183"
       d="m 44.417931,163.57123 -28.878383,8.32686 31.407875,3.45261 z"
       id="path27" />
    <path
       style="fill:#666666;stroke-width:0.105183"
       d="m 125.7833,140.82464 0.63237,26.80847 8.64243,3.4526 c 0,0 9.4856,-13.81042 6.74532,-24.98062 -16.4417,-4.87428 -16.02012,-5.28045 -16.02012,-5.28045 z"
       id="path28" />
    <path
       style="fill:#666666;stroke-width:0.105183"
       d="m 107.23368,170.47643 10.32876,0.81239 -0.21079,-28.43324 -23.608601,-22.13731 2.740285,-4.0619 -5.058987,-0.40618 -6.745315,-10.96711 -4.426613,6.49903 10.750348,7.71759 0.210789,7.31141 23.187024,25.38682 0.84316,8.12377 z"
       id="path29" />
    <path
       style="fill:#666666;stroke-width:0.105183"
       d="m 92.267515,96.550021 20.025155,-14.013523 5.26977,-3.046418 -9.90717,15.63828 z"
       id="path30" />
    <path
       style="fill:#808080;stroke-width:0.105183"
       d="m 128.31279,145.29272 v 20.51254 l 5.69137,1.62475 6.9561,-19.09089 z"
       id="path31" />
    <path
       style="fill:#808080;stroke-width:0.105183"
       d="m 95.640172,158.69695 -23.397815,17.26304 -2.529493,-8.12379 -6.323733,3.24951 -7.37769,-19.49706 -8.010062,2.84332 -16.441707,-17.87233 29.510757,8.1238 5.691359,-4.0619 -46.795626,-14.01353 c 0,0 -4.848197,-3.85879 2.740284,-2.84331 7.58848,1.01546 47.638791,16.04446 47.638791,16.04446 l 2.529493,2.84333 4.426613,-2.64023 c 0,0 -26.559679,-20.10636 -33.937368,-29.44871 -7.377689,-9.34235 20.235947,0.81236 20.235947,0.81236 l 18.549618,18.07542 z"
       id="path32" />
    <path
       style="fill:#b3b3b3;stroke-width:0.105183"
       d="m 102.59627,186.52089 2.74029,10.15474 10.32877,-7.92069 z"
       id="path33" />
    <path
       style="fill:#b3b3b3;stroke-width:0.105183"
       d="m 78.355299,183.67758 4.005031,3.04642 5.480569,-2.03096 z"
       id="path34" />
    <path
       style="fill:#b3b3b3;stroke-width:0.105183"
       d="m 54.957485,181.84972 0.843165,8.93617 2.951076,-0.60929 0.843164,-7.51449 z"
       id="path35" />
    <path
       style="fill:#b3b3b3;stroke-width:0.105183"
       d="m 131.05308,148.54223 0.21079,13.40423 7.37769,-11.98257 z"
       id="path36" />
    <path
       style="fill:#b3b3b3;stroke-width:0.264583"
       d="M 235.25364,274.80956 Z"
       id="path37" />
    <path
       style="fill:#b3b3b3;stroke-width:0.105183"
       d="m 131.89624,130.4668 -1.47554,1.62477 2.3187,0.40619 z"
       id="path38" />
    <path
       style="fill:#b3b3b3;stroke-width:0.105183"
       d="m 111.4495,104.8769 -1.47553,5.68665 10.11797,3.65569 6.32373,-4.87426 -1.89712,-5.07737 z"
       id="path39" />
    <path
       style="fill:#666666;stroke-width:0.0525906"
       d="m 77.775623,146.73419 -4.426613,-11.06865 -9.380204,-9.34235 c 0,0 -7.58848,-3.96033 -6.112942,-0.71083 1.475538,3.2495 13.385236,12.18568 13.385236,12.18568 l 2.951074,3.96033 -4.426612,1.21858 -1.475538,-2.33558 -2.529493,1.5232 -0.210791,1.52321 -11.804303,-3.45261 3.899636,5.07737 5.164382,-0.81239 3.372659,8.42844 3.161866,-0.40621 1.159351,2.84333 9.064018,-6.09283 z"
       id="path40" />
    <path
       style="fill:#4d4d4d;stroke-width:0.105183"
       d="m 40.62369,167.43001 -16.863289,4.06189 20.025156,1.62476 z"
       id="path41" />
    <path
       style="fill:#666666;stroke-width:0.105183"
       d="m 31.13809,171.08571 8.010062,-1.62475 1.89712,2.84333 z"
       id="path42" />
    <path
       style="fill:#999999;stroke-width:0.105183"
       d="m 92.05672,157.88457 -17.917244,12.18569 -2.740284,-7.31142 -6.745315,3.45261 -4.637404,-12.99805 -4.426614,-4.46808 -6.534524,2.64023 -9.064018,-9.54545 13.490631,2.84334 2.107911,2.43712 6.956107,-0.40619 1.89712,8.32687 4.848196,-0.40617 0.843164,2.43712 14.333797,-5.88975 -5.26978,-7.51448 -0.210791,-5.68666 -12.647466,-13.20114 -9.274809,-3.45261 -12.436676,-10.96711 0.421583,-2.64022 5.058986,1.42166 12.436676,2.84331 7.377689,7.92071 10.750346,9.13925 z"
       id="path43" />
    <path
       style="fill:#b3b3b3;stroke-width:0.105183"
       d="m 121.77827,131.88847 -9.4856,-6.49902 8.64243,8.32688 z"
       id="path44" />
    <path
       style="fill:#4d4d4d;stroke-width:0.105183"
       d="m 66.129416,145.69891 1.053955,4.67117 3.372657,-0.20311 0.632374,2.64024 5.480568,-3.45261 -1.897119,-6.49902 z"
       id="path45" />
    <path
       style="fill:#4d4d4d;stroke-width:0.105183"
       d="m 49.055335,162.55575 4.005031,13.40424 h 6.745315 l -8.010062,-13.81044 z"
       id="path46" />
  </g>
  <path
     style="fill:#b3b3b3;stroke-width:0.105183"
     d="M 124.72935,78.271513 114.18979,96.95621 126.62646,94.925265 Z"
     id="path51" />
  <path
     style="fill:#cccccc;stroke-width:0.105183"
     d="m 114.18979,106.70475 c 0.84316,0 8.01006,-0.20309 8.01006,-0.20309 l 2.10791,2.64022 -3.79424,2.64023 -8.64244,-2.23404 z"
     id="path52" />
  <path
     style="fill:#cccccc;stroke-width:0.105183"
     d="m 123.4646,84.973633 -5.90216,9.748536 7.79928,-1.421661 z"
     id="path53" />
  <path
     style="fill:#cccccc;stroke-width:0.105183"
     d="m 132.9502,150.57317 -0.42158,6.09283 4.42661,-5.28045 z"
     id="path54" />
  <path
     style="fill:#b3b3b3;stroke-width:0.105183"
     d="m 49.266126,110.36044 12.436676,2.64023 5.058986,6.09283 12.225884,9.74855 11.38272,28.02705 -14.123004,6.90522 -2.318703,-5.28046 -8.853226,2.43712 -0.632373,-3.4526 4.426614,-1.42166 0.210791,1.62475 16.652496,-4.87426 0.421584,-2.43713 -5.269778,-6.49902 0.632373,-5.48357 -12.647466,-14.41971 -10.750348,-4.26499 -4.00503,-3.24952 z"
     id="path55" />
  <path
     style="fill:#b3b3b3;stroke-width:0.105183"
     d="m 63.599922,154.83815 -2.107911,-6.70211 -4.426614,-0.4062 1.264747,2.43713 1.686329,0.20311 1.264746,3.85879 z"
     id="path56" />
  <path
     style="fill:#b3b3b3;stroke-width:0.105183"
     d="m 53.692738,146.51127 -1.897119,-1.62475 -8.220853,-1.42166 5.90215,5.88974 4.848197,-1.01548 z"
     id="path57" />
  <path
     style="fill:#999999;stroke-width:0.105183"
     d="m 24.814358,125.59255 42.369013,13.81042 -41.315058,-11.3733 z"
     id="path58" />
  <path
     style="fill:#999999;stroke-width:0.105183"
     d="m 20.598534,124.57707 -0.421581,1.82783 4.426612,0.8124 v -2.03096 z"
     id="path59" />
  <path
     style="fill:#333333;stroke-width:0.105183"
     d="m 68.448117,146.71437 v 2.23404 l 3.372659,-0.40618 0.21079,2.03094 2.951076,-2.03094 -1.475538,-3.45261 z"
     id="path60" />
  <path
     style="fill:#1a1a1a;stroke-width:0.105183"
     d="m 69.080491,146.8413 0.05269,1.62475 2.608541,-0.58389 0.65872,0.10157 -0.07905,1.82785 2.107911,-1.42165 -1.264746,-2.66562 z"
     id="path61" />
  <path
     style="fill:#000000;stroke-width:0.105183"
     d="m 69.739213,147.01901 0.07905,0.68545 2.634889,-0.22849 0.632372,0.73622 -0.47428,0.96471 1.370142,-0.78699 -1.080304,-2.05633 z"
     id="path62" />
  <path
     style="fill:#cccccc;stroke-width:0.105183"
     d="m 75.265452,157.26943 2.235778,4.30829 11.476989,-4.88272 -2.235775,-3.30302 z"
     id="path63" />
  <path
     style="fill:#cccccc;stroke-width:0.105183"
     d="m 47.839917,145.34985 4.024399,0.57443 1.043363,1.43609 0.447155,0.71806 h -3.875347 z"
     id="path64" />
  <path
     style="fill:#cccccc;stroke-width:0.105183"
     d="m 52.609575,112.46327 4.918711,5.74437 10.433628,4.30829 -0.298103,-1.72332 -2.384831,-1.57969 -3.875346,-5.16996 z"
     id="path65" />
  <path
     style="fill:#cccccc;stroke-width:0.105183"
     d="m 71.092001,124.67007 9.092163,11.20155 -1.788623,-6.60605 z"
     id="path66" />
  <path
     style="fill:#cccccc;stroke-width:0.105183"
     d="m 82.419942,139.60546 3.875346,9.04741 -4.322501,-5.16996 z"
     id="path67" />
  <path
     style="fill:#cccccc;stroke-width:0.105183"
     d="m 65.875188,157.84388 0.298103,2.01053 7.005435,-1.5797 -0.596206,-0.86166 -4.322503,1.14888 v -1.4361 z"
     id="path68" />
  <path
     style="fill:#b3b3b3;stroke-width:0.105183"
     d="m 21.308693,124.9932 -0.447156,1.25658 3.353666,0.43082 -0.07453,-1.18478 z"
     id="path69" />
  <path
     style="fill:#b3b3b3;stroke-width:0.105183"
     d="m 26.227403,126.5011 0.149051,1.25658 19.302211,5.42126 z"
     id="path70" />
  <path
     style="fill:#cccccc;stroke-width:0.105183"
     d="m 21.718585,125.42402 -0.149052,0.64624 2.123989,0.17952 -0.03726,-0.53853 z"
     id="path71" />
  <path
     style="fill:#cccccc;stroke-width:0.105183"
     d="m 27.047187,127.11143 -0.03726,0.53854 8.160587,2.40545 z"
     id="path72" />
  <path
     style="fill:#808080;stroke-width:0.105183"
     d="m 110.88884,169.04542 5.51492,1.00526 v -26.42415 l -22.208723,-20.82339 -1.788624,3.15941 22.506827,24.70084 0.89431,8.32935 -0.14905,3.30303 z"
     id="path73" />
  <path
     style="fill:#808080;stroke-width:0.105183"
     d="m 84.804769,107.72415 5.66397,8.61658 4.471553,1.14885 -1.490515,2.29777 -11.775095,-8.18574 z"
     id="path74" />
  <path
     style="fill:#999999;stroke-width:0.105183"
     d="m 94.79124,124.95728 20.4201,19.24368 -0.74526,4.16468 -20.420095,-21.68504 z"
     id="path75" />
  <path
     style="fill:#999999;stroke-width:0.105183"
     d="m 115.50945,164.59351 -2.68294,3.44664 2.98104,1.14888 z"
     id="path76" />
  <path
     style="fill:#999999;stroke-width:0.105183"
     d="m 84.804769,109.73468 -1.192416,2.15415 5.216814,4.16467 z"
     id="path77" />
  <path
     style="fill:#999999;stroke-width:0.105183"
     d="m 91.064946,117.05876 2.682934,0.57444 -0.745259,1.4361 z"
     id="path78" />
  <path
     style="fill:#b3b3b3;stroke-width:0.105183"
     d="m 95.323984,126.20183 18.971206,17.97386 -0.42159,2.33558 -18.865802,-19.49707 z"
     id="path79" />
  <path
     style="fill:#b3b3b3;stroke-width:0.105183"
     d="m 84.99522,111.27438 1.686328,2.33558 -2.318703,-1.52321 z"
     id="path80" />
  <path
     style="fill:#b3b3b3;stroke-width:0.105183"
     d="m 114.82216,166.21145 -0.94856,1.52321 1.47554,0.71083 z"
     id="path81" />
  <path
     style="fill:#cccccc;stroke-width:0.105183"
     d="m 113.45202,143.9726 -0.21079,1.42165 -13.279838,-14.4197 z"
     id="path82" />
  <path
     style="fill:#e6e6e6;stroke-width:0.105183"
     d="m 77.054075,157.98748 1.192413,2.01054 8.79406,-3.30302 -1.192416,-2.01054 z"
     id="path83" />
  <path
     style="fill:#e6e6e6;stroke-width:0.105183"
     d="m 55.739663,114.6174 1.937675,2.72859 6.856384,2.72857 -3.130088,-4.5955 z"
     id="path84" />
  <path
     style="fill:#e6e6e6;stroke-width:0.105183"
     d="m 49.479487,146.49873 0.745259,1.29248 1.788622,-0.43084 -0.745259,-0.86164 z"
     id="path85" />
  <path
     style="fill:#cccccc;stroke-width:0.105183"
     d="m 58.869752,148.50926 v 1.29248 l 1.937673,0.14361 0.74526,3.30301 1.043363,0.28723 -1.490519,-4.59551 z"
     id="path86" />
  <path
     style="fill:#e6e6e6;stroke-width:0.105183"
     d="m 73.327779,126.6806 5.514918,6.46243 -0.745259,-3.44663 z"
     id="path87" />
  <path
     style="fill:#e6e6e6;stroke-width:0.105183"
     d="m 82.867098,142.04682 1.788619,3.73386 -1.937671,-2.01055 z"
     id="path88" />
  <path
     style="fill:#f2f2f2;stroke-width:0.105183"
     d="m 78.693645,157.98748 0.298104,1.00526 7.303539,-2.29774 -0.745259,-1.00527 z"
     id="path89" />
  <path
     style="fill:#e6e6e6;stroke-width:0.105183"
     d="m 66.656393,158.08767 v 1.117 l 1.159351,-0.10156 0.105395,-1.42168 z"
     id="path90" />
  <path
     style="fill:#f2f2f2;stroke-width:0.105183"
     d="m 68.975095,158.69695 2.951076,-0.71083"
     id="path91" />
  <path
     style="fill:#e6e6e6;stroke-width:0.105183"
     d="m 68.685257,158.6208 3.79424,-0.83777 0.263489,0.38079 -3.925984,0.91392 z"
     id="path92" />
  <path
     style="fill:#cccccc;stroke-width:0.105183"
     d="m 103.88341,187.42743 1.93767,7.89853 7.15448,-5.60077 z"
     id="path93" />
  <path
     style="fill:#e6e6e6;stroke-width:0.105183"
     d="m 105.52298,189.15075 0.74525,4.59551 4.62061,-3.44663 z"
     id="path94" />
  <path
     style="fill:#f9f9f9;stroke-width:0.105183"
     d="m 106.28512,190.02428 0.42158,2.79255 3.21457,-2.18325 z"
     id="path95" />
  <path
     style="fill:#cccccc;stroke-width:0.105183"
     d="m 80.556792,184.33983 1.565046,1.65151 3.353662,-0.86167 z"
     id="path96" />
  <path
     style="fill:#cccccc;stroke-width:0.105183"
     d="m 55.888715,183.11914 0.37263,6.53426 1.937674,0.14359 0.447155,-6.39061 z"
     id="path97" />
  <path
     style="fill:#e6e6e6;stroke-width:0.105183"
     d="m 81.727956,184.7946 2.266004,0.40619 -1.84442,0.45696 z"
     id="path98" />
  <path
     style="fill:#e6e6e6;stroke-width:0.105183"
     d="m 56.433023,183.72835 0.158094,5.28045 1.370142,0.30466 0.210791,-5.53432 z"
     id="path99" />
  <path
     style="fill:#e6e6e6;stroke-width:0.105183"
     d="m 122.51488,87.870131 -3.46546,5.780283 5.36587,-0.682145 z"
     id="path100" />
  <path
     style="fill:#e6e6e6;stroke-width:0.105183"
     d="m 114.72692,107.25742 -1.52778,1.93873 6.78186,1.79511 3.20461,-1.90282 -1.49052,-2.04644 z"
     id="path101" />
  <path
     style="fill:#ececec;stroke-width:0.105183"
     d="m 115.13682,107.65234 -0.81979,1.29249 5.58944,1.54379 2.4221,-1.6156 -0.85705,-1.29248 z"
     id="path102" />
  <path
     style="fill:#f2f2f2;stroke-width:0.105183"
     d="m 122.04176,89.594034 c -0.1054,0.07617 -1.76538,3.147965 -1.76538,3.147965 l 3.5571,-0.177708 z"
     id="path105" />
  <path
     style="fill:#808080;stroke-width:0.105183"
     d="m 96.430814,95.373728 10.955306,-1.005266 8.0488,-12.781248 z"
     id="path106" />
  <path
     style="fill:#999999;stroke-width:0.105183"
     d="m 99.486375,94.296657 7.303535,-0.789852 6.85639,-9.765447 z"
     id="path107" />
  <path
     style="fill:#b3b3b3;stroke-width:0.105183"
     d="m 102.69099,92.932367 3.50271,-0.14361 4.91871,-6.17521 z"
     id="path108" />
  <path
     style="fill:#666666;stroke-width:0.105183"
     d="m 93.584958,97.870136 c 0.526977,-0.101547 11.751602,-1.675531 11.751602,-1.675531 0,0 0.79047,1.066246 0.47428,1.066246 -0.31618,0 -15.229658,3.757259 -15.229658,3.757259 z"
     id="path109" />
  <path
     style="fill:#808080;stroke-width:0.105183"
     d="m 94.111935,98.327099 -0.843164,1.370887 11.540819,-2.589455 -0.26349,-0.507736 z"
     id="path110" />
  <path
     style="fill:#999999;stroke-width:0.105183"
     d="m 94.744309,98.580967 -0.474283,0.660058 9.801784,-2.132494 z"
     id="path111" />
  <path
     style="fill:#999999;stroke-width:0.105183"
     d="m 137.12196,154.18182 -6.18565,10.77073 c 0,0 2.6084,1.36429 2.68293,1.07706 0.0745,-0.28721 3.50272,-11.84779 3.50272,-11.84779 z"
     id="path112" />
  <path
     style="fill:#999999;stroke-width:0.105183"
     d="m 130.3401,150.95062 0.44716,13.35568 -1.41599,0.50265 z"
     id="path113" />
  <path
     style="fill:#999999;stroke-width:0.105183"
     d="m 129.14769,146.57052 -0.37263,16.15608 1.78862,-16.22787 z"
     id="path114" />
  <path
     style="fill:#999999;stroke-width:0.105183"
     d="m 131.97967,146.78594 8.0488,1.86693 -8.0488,-0.14361 z"
     id="path115" />
  <path
     style="fill:#999999;stroke-width:0.105183"
     d="m 64.310144,169.26084 5.440392,-2.51318 2.90651,7.10867 2.235778,-0.71804 -3.875347,-8.40115 -7.601644,2.80038 z"
     id="path116" />
  <path
     style="fill:#b3b3b3;stroke-width:0.105183"
     d="m 65.502558,163.80366 5.813021,-2.36954 3.353667,6.67784 2.608406,-0.43084 -4.024399,-7.97033 -8.868583,2.08235 z"
     id="path117" />
  <path
     style="fill:#b3b3b3;stroke-width:0.105183"
     d="m 78.395541,163.87546 9.315739,-5.09813 1.565043,0.35903 -10.657204,6.67785 z"
     id="path118" />
  <path
     style="fill:#999999;stroke-width:0.105183"
     d="m 76.755971,171.55858 15.724966,-11.27334 -0.894312,-0.93347 -15.501386,10.55531 z"
     id="path119" />
  <path
     style="fill:#b3b3b3;stroke-width:0.105183"
     d="m 64.653877,167.73466 5.902151,-2.18327 3.372657,7.10831 -1.317444,0.35541 -2.371399,-6.5498 -5.375174,2.03096 z"
     id="path120" />
  <path
     style="fill:#cccccc;stroke-width:0.105183"
     d="m 65.444344,161.99724 7.430386,-1.62476 3.478054,6.7529 -1.42284,0.30463 -3.003773,-6.29593 -6.060245,1.82786 z"
     id="path121" />
  <path
     style="fill:#cccccc;stroke-width:0.105183"
     d="m 79.461953,164.53592 8.484344,-4.77273 -0.316187,-0.45696 -8.484343,4.51886 z"
     id="path122" />
  <path
     style="fill:#b3b3b3;stroke-width:0.105183"
     d="m 76.879761,170.12102 14.281097,-10.15473 0.632374,0.35541 -14.43919,10.51015 z"
     id="path123" />
  <path
     style="fill:#999999;stroke-width:0.105183"
     d="m 45.268773,141.00565 -11.141623,-3.1235 7.378064,8.93969 1.788623,-0.46673 -5.254078,-5.63667 7.564381,1.75921 z"
     id="path124" />
  <path
     style="fill:#b3b3b3;stroke-width:0.105183"
     d="m 42.548577,146.1756 -5.067762,-5.74439 7.56438,1.72333 -0.223577,-0.86166 -9.688369,-2.9081 6.595543,8.22165 z"
     id="path125" />
  <path
     style="fill:#cccccc;stroke-width:0.105183"
     d="m 44.523514,141.5442 -7.82522,-2.40547 -0.07453,0.78985 7.750695,1.93874 z"
     id="path126" />
  <path
     style="fill:#cccccc;stroke-width:0.105183"
     d="m 42.138684,145.96019 -4.508817,-5.13404 -0.26084,0.0358 4.397028,5.49308 z"
     id="path127" />
  <path
     style="fill:#666666;stroke-width:0.105183"
     d="m 50.530873,163.57123 3.478053,11.9318 4.215822,-0.10157 -6.587223,-12.28722 z"
     id="path128" />
  <path
     style="fill:#808080;stroke-width:0.105183"
     d="m 51.321339,164.43438 3.214565,10.15472 2.634889,0.10157 z"
     id="path129" />
  <path
     style="fill:#999999;stroke-width:0.105183"
     d="m 52.427992,167.12538 2.582191,7.10831 h 1.475539 z"
     id="path130" />
  <path
     style="fill:#808080;stroke-width:0.105183"
     d="m 38.568477,170.22257 1.264747,1.37089 -6.323733,-0.45697 z"
     id="path131" />
  <path
     style="fill:#999999;stroke-width:0.105183"
     d="m 44.259837,147.27289 4.321218,4.97582 6.37643,-2.58947 0.790469,1.42168 -7.483086,2.64022 -5.269777,-5.68665 z"
     id="path132" />
  <path
     style="fill:#b3b3b3;stroke-width:0.105183"
     d="m 44.628721,148.13604 3.899636,4.31575 6.007547,-2.08171 0.474279,0.5585 -6.481826,2.23405 -4.584707,-4.72196 z"
     id="path133" />
  <path
     style="fill:#808080;stroke-width:0.105183"
     d="m 55.44156,152.96115 -7.154488,2.58497 -18.556951,-19.74632 26.084068,6.74966 1.043363,-1.72331 -29.363209,-6.53424 19.451263,23.26473 8.123324,-2.08232 7.527118,17.80758 1.117889,-0.35903 z"
     id="path134" />
  <path
     style="fill:#999999;stroke-width:0.105183"
     d="m 63.117729,172.27663 -7.974272,-18.59743 -7.079963,2.29775 -18.184321,-19.53089 17.364537,20.60796 7.82522,-1.93872 7.452592,17.44856 z"
     id="path135" />
  <path
     style="fill:#999999;stroke-width:0.105183"
     d="m 56.112293,140.96977 -27.127431,-6.10343 26.903853,7.3959 z"
     id="path136" />
  <path
     style="fill:#808080;stroke-width:0.105183"
     d="m 64.443086,171.59346 4.953591,-2.1325 2.529494,7.81915 25.400332,-18.58316 -12.43668,-25.28527 15.071569,25.89455 -29.826946,21.22338 -1.791724,-8.02223 -4.321218,0.60928 z"
     id="path137" />
  <path
     style="fill:#999999;stroke-width:0.105183"
     d="m 65.577085,171.7022 3.577243,-1.22069 2.38483,7.39588 26.307647,-19.31546 -8.868586,-17.44857 10.58268,18.16662 -29.139631,20.46434 -1.863147,-7.68309 -3.279141,0.71804 z"
     id="path138" />
  <path
     style="fill:#b3b3b3;stroke-width:0.105183"
     d="m 97.748081,159.05236 -27.139354,19.4463 0.158092,0.76161 28.351404,-19.90326 -0.632369,-0.9647 z"
     id="path139" />
  <path
     style="fill:#b3b3b3;stroke-width:0.105183"
     d="m 66.02402,171.89809 2.951075,-0.86315 2.266005,6.39748 -0.843165,0.4062 -1.791724,-6.09285 -2.687587,0.66006 z"
     id="path140" />
  <path
     style="fill:#b3b3b3;stroke-width:0.105183"
     d="m 97.748081,157.93534 -3.425357,-6.75289 4.110428,6.49902 z"
     id="path141" />
  <path
     style="fill:#808080;stroke-width:0.105183"
     d="m 58.124493,141.32877 -0.745259,2.01055 0.596207,0.93345 4.471555,-0.43084 0.596208,-1.72331 z"
     id="path142" />
  <path
     style="fill:#999999;stroke-width:0.105183"
     d="m 58.720701,142.11862 -0.37263,1.50791 3.65177,-0.14361 0.521681,-1.07707 -2.981037,-0.21541 z"
     id="path143" />
  <path
     style="fill:#b3b3b3;stroke-width:0.105183"
     d="m 59.46596,142.62126 -0.223578,0.57444 2.384829,-0.0718 0.149052,-0.50262 z"
     id="path144" />
  <path
     style="fill:#999999;stroke-width:0.105183"
     d="m 46.945606,141.54419 8.868583,2.15415 0.968837,2.01053 5.216815,-0.57444 0.37263,1.14888 -6.334703,0.21542 -1.788623,-2.15414 -7.154487,-1.79513 z"
     id="path145" />
  <path
     style="fill:#999999;stroke-width:0.105183"
     d="m 76.66897,141.43392 1.686329,5.28045 2.318702,2.53869 -8.642435,5.38201 -0.21079,1.21855 11.698905,-4.7727 -4.742799,-6.70213 -0.421583,-5.07736 z"
     id="path146" />
  <path
     style="fill:#b3b3b3;stroke-width:0.105183"
     d="m 78.144508,140.41844 0.158093,3.70648 1.68633,2.84333 2.951074,4.01112 -10.117973,4.11266 v -0.55851 l 8.273552,-5.28046 -2.160609,-2.43714 -1.89712,-5.382 z"
     id="path147" />
  <path
     style="fill:#cccccc;stroke-width:0.105183"
     d="m 81.413842,149.69404 0.819784,1.25658 -9.017635,3.84155 z"
     id="path148" />
  <path
     style="fill:#999999;stroke-width:0.105183"
     d="m 56.538419,150.77627 3.10917,3.09718 4.47931,12.38878 -1.791724,0.96469 z"
     id="path149" />
  <path
     style="fill:#b3b3b3;stroke-width:0.105183"
     d="m 62.651361,166.46531 1.001258,-0.30464 -4.26852,-11.88103 -1.844423,-1.92939 z"
     id="path150" />
  <path
     style="fill:#999999;stroke-width:0.105183"
     d="m 81.674682,130.19904 11.551515,29.58355 1.863147,-1.07706 z"
     id="path151" />
  <path
     style="fill:#b3b3b3;stroke-width:0.105183"
     d="m 93.598829,159.06456 -9.464792,-22.90573 10.731731,22.33129 z"
     id="path152" />
  <path
     style="fill:#808080;stroke-width:0.105183"
     d="m 65.577085,112.46327 16.768329,16.8023 0.745259,-1.00527 -6.632806,-9.2628 -10.060998,-8.04215 z"
     id="path153" />
  <path
     style="fill:#808080;stroke-width:0.105183"
     d="m 65.353507,110.38092 -5.514918,-2.58496 -5.514917,-1.57972 -3.949874,-0.71804 -3.428192,-0.50263 -2.981036,0.1436 -1.490519,0.21542 -1.415992,0.71805 0.149052,1.07706 0.521681,0.35903 0.819785,-1.07706 1.192415,-0.21543 2.161251,0.0718 2.757459,0.21542 2.310304,0.28722 2.235777,0.64624 2.0122,0.57444 1.937673,0.35902 2.459356,0.93346 1.639569,0.64625 1.788623,0.57444 1.043362,0.50263 0.74526,0.64624 0.968837,-0.28721 z"
     id="path154" />
  <path
     style="fill:#808080;stroke-width:0.105183"
     d="m 41.505214,108.08318 -1.415991,-0.86167 0.447155,1.65151 1.043363,1.57971 1.341466,2.36956 1.63957,2.08234 2.310303,2.29774 2.310303,2.15415 2.608407,2.36956 2.0122,1.86692 18.556952,14.9354 1.415993,-1.14888 -1.117889,-1.72332 -9.241213,-8.9756 -5.216814,-1.72332 -0.894311,0.21541 -13.86182,-13.64288 z"
     id="path155" />
  <path
     style="fill:#999999;stroke-width:0.105183"
     d="m 73.104201,137.37952 -0.745259,-1.36429 -9.390265,-8.76019 -4.769658,-1.6515 -0.447155,0.50263 14.3835,11.70418 z"
     id="path156" />
  <path
     style="fill:#999999;stroke-width:0.105183"
     d="m 82.494466,127.82948 c -0.223576,-0.28722 -5.962073,-8.11393 -5.962073,-8.11393 l -9.762893,-7.97033 -0.596209,0.71805 15.650443,15.72525 z"
     id="path157" />
  <path
     style="fill:#999999;stroke-width:0.105183"
     d="m 64.90635,110.45273 -8.645005,-3.37482 -8.794058,-1.72332 -4.620606,0.28722 -1.415993,0.57443 0.298104,0.71806 0.670734,-0.78986 2.310303,-0.21541 1.937674,-0.14361 7.452591,1.29249 4.91871,1.5797 4.471555,1.72331 z"
     id="path158" />
  <path
     style="fill:#999999;stroke-width:0.105183"
     d="m 55.888715,124.45465 -11.998671,-11.84778 -2.161252,-3.37483 -0.596207,-0.93346 -0.521682,0.14362 2.533881,3.66204 0.149053,0.64624 11.700568,11.41695 z"
     id="path159" />
  <path
     style="fill:#b3b3b3;stroke-width:0.105183"
     d="m 58.869752,126.32158 3.502719,1.4361 9.613842,8.18574 0.819785,1.22069 -0.745258,0.21541 -0.745261,-0.78985 z"
     id="path160" />
  <path
     style="fill:#b3b3b3;stroke-width:0.105183"
     d="m 67.142128,112.53507 9.017637,7.32408 5.813022,7.39589 -0.372632,0.28722 z"
     id="path161" />
  <path
     style="fill:#999999;stroke-width:0.105183"
     d="m 77.948386,137.95395 -11.551517,-12.56583 -8.19785,-3.15941 -0.07453,1.72331 5.813021,1.2925 10.359102,10.6989 0.223578,1.14888 2.608407,2.01053 z"
     id="path162" />
  <path
     style="fill:#b3b3b3;stroke-width:0.105183"
     d="m 65.800663,126.6088 7.82522,8.11394 0.745259,-0.14362 -7.378066,-8.11392 z"
     id="path163" />
  <path
     style="fill:#b3b3b3;stroke-width:0.105183"
     d="m 74.892824,135.15355 2.384828,2.44138 -0.149051,0.64624 -2.235777,-1.00527 z"
     id="path164" />
  <path
     style="fill:#b3b3b3;stroke-width:0.105183"
     d="m 59.018804,122.94676 4.769659,1.65151 -5.29134,-0.86167 z"
     id="path165" />
  <path
     style="fill:#999999;stroke-width:0.105183"
     d="m 44.262673,107.72415 0.07453,2.08233 -1.937674,-1.79511 z"
     id="path166" />
  <path
     style="fill:#b3b3b3;stroke-width:0.105183"
     d="m 45.60414,108.51399 4.397029,1.00528 -1.714097,0.71803 4.918711,6.03161 -8.346903,-6.31882 z"
     id="path167" />
  <path
     style="fill:#cccccc;stroke-width:0.105183"
     d="m 68.781699,121.65427 6.036598,4.4519 -6.334702,-3.15941 z"
     id="path168" />
  <path
     style="fill:#f2f2f2;stroke-width:0.105183"
     d="m 57.528286,115.62268 0.596207,1.5079 4.769658,1.7951 -1.863148,-2.94399 z"
     id="path169" />
  <path
     style="fill:#cccccc;stroke-width:0.105183"
     d="m 46.051296,109.01664 -0.447156,0.93345 4.769658,3.80565 -2.831984,-3.73385 1.26694,-0.28721 z"
     id="path170" />
  <path
     style="fill:#999999;stroke-width:0.105183"
     d="m 57.081131,122.01329 -10.210051,-9.40642 -0.745259,0.28722 10.359102,9.98087 z"
     id="path171" />
  <path
     style="fill:#b3b3b3;stroke-width:0.105183"
     d="m 47.206446,113.1813 9.502055,8.79609 -0.298103,0.35902 -9.464792,-8.83197 z"
     id="path172" />
  <path
     style="fill:#808080;stroke-width:0.105183"
     d="m 70.421268,138.60019 -14.234448,-6.24701 -15.203287,-5.38535 -11.924146,-3.08761 -0.447155,1.00527 13.191087,4.16467 10.210049,2.94401 6.558281,2.58495 11.253413,4.59551 z"
     id="path173" />
  <path
     style="fill:#808080;stroke-width:0.105183"
     d="m 28.500444,123.7366 -7.601645,-0.78984 7.340804,1.72331 z"
     id="path174" />
  <path
     style="fill:#808080;stroke-width:0.105183"
     d="m 20.488907,123.05446 -4.508818,0.82576 1.75136,2.19004 0.931573,-0.25131 -0.707996,-1.83103 2.496618,-0.68214 z"
     id="path175" />
  <path
     style="fill:#999999;stroke-width:0.105183"
     d="m 69.81826,138.53982 -12.647467,-5.48356 -15.809334,-5.58509 -11.804302,-3.19875 -0.105396,0.50774 21.658787,6.54979 18.180734,7.41296 z"
     id="path176" />
  <path
     style="fill:#999999;stroke-width:0.105183"
     d="m 28.165076,123.82637 -4.583343,-0.53854 4.41566,1.23862 z"
     id="path177" />
  <path
     style="fill:#999999;stroke-width:0.105183"
     d="m 16.594928,124.05972 1.24831,1.79513 0.577575,-0.12564 -0.707997,-1.84897 z"
     id="path178" />
  <path
     style="fill:#999999;stroke-width:0.105183"
     d="m 18.141342,123.593 1.974935,-0.39493 0.0559,0.12564 -1.75136,0.41288 z"
     id="path179" />
  <path
     style="fill:#b3b3b3;stroke-width:0.105183"
     d="m 17.097979,124.23924 0.745259,1.29249 h 0.37263 l -0.633471,-1.3643 z"
     id="path180" />
  <path
     style="fill:#b3b3b3;stroke-width:0.105183"
     d="m 25.221304,123.5571 2.720195,0.35902 -0.149052,0.35901 z"
     id="path181" />
  <path
     style="fill:#b3b3b3;stroke-width:0.105183"
     d="m 30.251802,124.56237 10.582679,2.97989 8.533217,2.87219 -8.272376,-2.26186 -10.806257,-3.33891 z"
     id="path182" />
  <path
     style="fill:#b3b3b3;stroke-width:0.105183"
     d="m 69.228854,138.60019 -15.352338,-6.24701 2.198514,0.46674 12.818457,5.38535 z"
     id="path183" />
  <path
     style="fill:#808080;stroke-width:0.105183"
     d="m 62.598664,140.82464 -19.445481,-5.58511 -21.922275,-7.5145 0.421582,-0.40618 24.767956,7.71759 16.757894,4.87427 z"
     id="path184" />
  <path
     style="fill:#999999;stroke-width:0.105183"
     d="m 62.651361,139.96148 -0.210791,0.50772 -20.60483,-5.9405 -19.392783,-6.60057 0.158093,-0.15233 17.864547,5.63588 z"
     id="path185" />
  <path
     style="fill:#b3b3b3;stroke-width:0.105183"
     d="m 62.335208,139.92858 -0.223578,0.25132 -20.457364,-5.88799 -7.750695,-2.58497 0.409893,-0.14361 10.21005,3.23121 z"
     id="path186" />
  <path
     style="fill:#b3b3b3;stroke-width:0.105183"
     d="m 33.456416,131.29406 -4.378397,-1.45405 -0.11179,0.25133 4.210715,1.34633 z"
     id="path187" />
  <path
     style="fill:#e6e6e6;stroke-width:0.105183"
     d="m 21.886268,125.63943 0.01863,0.32312 h 1.527781 l -0.01863,-0.2154 z"
     id="path188" />
  <path
     style="fill:#999999;stroke-width:0.105183"
     d="m 20.440441,124.06933 -0.579675,2.03094 -1.106653,-1.62474 z"
     id="path189" />
  <path
     style="fill:#999999;stroke-width:0.105183"
     d="m 21.283606,123.86623 v 0.55851 l 3.109169,0.35542 37.520818,12.59187 0.105395,-0.40619 -35.781792,-12.1349 -1.580932,-0.45696 z"
     id="path190" />
  <path
     style="fill:#999999;stroke-width:0.105183"
     d="m 67.394162,140.67231 1.264747,-0.40618 1.42284,2.08171 1.42284,-0.30464 -1.42284,-2.08172 -4.110428,-1.47244 1.897121,1.06625 -4.690102,-0.9647 v 0.60928 l 4.373915,1.06626 -3.267262,2.38636 0.895861,0.45696 0.421584,-1.01548 z"
     id="path191" />
  <path
     style="fill:#999999;stroke-width:0.105183"
     d="m 46.051561,133.91941 16.5998,4.51887 -0.105395,0.76159 z"
     id="path192" />
  <path
     style="fill:#b3b3b3;stroke-width:0.105183"
     d="m 70.048639,140.35941 0.894312,1.472 -0.745261,0.10766 -1.043362,-1.65151 z"
     id="path193" />
  <path
     style="fill:#b3b3b3;stroke-width:0.105183"
     d="m 63.639411,138.81562 4.359766,0.96935 -0.149053,0.39493 -3.987135,-0.96937 z"
     id="path194" />
  <path
     style="fill:#b3b3b3;stroke-width:0.105183"
     d="m 68.222755,139.49776 0.186314,0.50263 1.341467,0.10765 -1.266941,-0.50263 z"
     id="path195" />
  <path
     style="fill:#b3b3b3;stroke-width:0.105183"
     d="m 65.204455,142.26224 -0.447156,0.35902 0.484419,0.17952 z"
     id="path196" />
  <path
     style="fill:#b3b3b3;stroke-width:0.105183"
     d="m 62.297944,138.5643 -6.260176,-1.75922 6.073862,2.15413 z"
     id="path197" />
  <path
     style="fill:#b3b3b3;stroke-width:0.105183"
     d="m 21.904899,124.09563 2.533882,0.28722 -0.07453,0.28722 -2.64567,-0.28722 z"
     id="path198" />
  <path
     style="fill:#b3b3b3;stroke-width:0.105183"
     d="m 25.18404,124.70597 36.741274,12.35043 -0.111788,0.21541 -36.29412,-12.24271 z"
     id="path199" />
  <path
     style="fill:#b3b3b3;stroke-width:0.105183"
     d="m 20.018858,124.42474 -0.158092,1.21857 -0.685072,-1.04085 z"
     id="path200" />
  <path
     style="fill:#b3b3b3;stroke-width:0.105183"
     d="m 36.276123,129.57827 24.68891,7.92069 -15.914729,-4.34115 1.791724,0.27926 -2.951075,-1.09162 -7.535783,-2.53871 z"
     id="path201" />
  <path
     style="fill:#cccccc;stroke-width:0.105183"
     d="m 47.316308,133.33552 c 0.105395,0 5.533266,1.70092 5.533266,1.70092 l -5.533266,-1.3709 z"
     id="path202" />
  <path
     style="fill:#b3b3b3;stroke-width:0.105183"
     d="m 61.808197,155.9044 1.580934,5.63587 1.42284,-0.55851 -1.264748,-3.96034 3.530752,-0.81238 -0.210791,-0.91392 z"
     id="path203" />
  <path
     style="fill:#cccccc;stroke-width:0.105183"
     d="m 64.337691,160.67711 -1.317445,-3.96033 3.478053,-0.66006 0.0527,-0.45696 -4.163125,0.50775 1.053954,4.87425 z"
     id="path204" />
  <path
     style="fill:#cccccc;stroke-width:0.105183"
     d="m 59.226007,154.88893 4.00503,10.81478 -0.579676,0.15232 -3.583448,-10.40859 z"
     id="path205" />
  <path
     style="fill:#b3b3b3;stroke-width:0.105183"
     d="m 60.06917,121.37832 8.220854,3.04642 12.278583,13.50579 -0.474281,0.30464 -12.647466,-13.20114 -7.219596,-2.94487 z"
     id="path206" />
  <path
     style="fill:#b3b3b3;stroke-width:0.105183"
     d="m 50.267384,115.03162 6.798013,5.7882 2.371401,1.01548 0.263487,-1.11703 -2.055212,-0.76161 -3.952335,-3.40183 -1.317444,-0.45695 z"
     id="path207" />
  <path
     style="fill:#b3b3b3;stroke-width:0.105183"
     d="m 53.429251,116.75793 3.372657,2.8941 2.63489,1.21856 -0.26349,0.4062 -2.002515,-0.71085 z"
     id="path208" />
  <path
     style="fill:#cccccc;stroke-width:0.105183"
     d="m 53.481948,116.80871 3.688845,3.19873 2.266005,0.86315 -0.210791,0.55851 -2.107912,-0.91392 -3.688844,-2.99565 z"
     id="path209" />
  <path
     style="fill:#cccccc;stroke-width:0.105183"
     d="m 60.754242,121.88607 7.272293,2.691 -0.105396,0.45696 -6.798013,-2.64024 z"
     id="path210" />
  <path
     style="fill:#4d4d4d;stroke-width:0.105183"
     d="m 66.998928,146.13047 0.26349,3.70647 1.001258,0.0762 -0.105396,-3.90958 h -0.895862 z"
     id="path211" />
  <path
     style="fill:#333333;stroke-width:0.105183"
     d="m 66.682742,146.2828 0.790467,3.63031 3.161866,-0.0508 0.71142,2.5133 4.874544,-3.12258 -1.686329,-5.86436 -7.772922,2.48792 1.133003,0.68543 5.981198,-2.25942 1.580932,4.69656 -3.767891,2.23405 -0.210791,-2.36098 -3.767891,0.35541 -0.263488,-2.66562 z"
     id="path212" />
  <path
     style="fill:#808080;stroke-width:0.105183"
     d="m 65.523391,145.67351 1.053955,5.25507 3.688844,-0.20309 0.658723,2.84332 6.508175,-4.2396 -2.213306,-6.95598 -9.195762,3.04642 -0.421582,-1.16779 9.775437,-2.64023 2.213306,5.81358 1.42284,1.75169 -8.378946,5.20429 -0.922211,-2.53867 -3.478053,0.0762 -2.055213,-7.41295 z"
     id="path213" />
  <path
     style="fill:#4d4d4d;stroke-width:0.105183"
     d="m 71.109355,139.55529 1.686329,2.33559 2.292354,-0.60928 -0.210792,-0.63468 1.739027,-0.5839 -2.687588,-2.18326 z"
     id="path214" />
  <path
     style="fill:#333333;stroke-width:0.105183"
     d="m 71.95252,139.63145 1.001258,1.57398 1.765375,-0.15232 -0.368884,-0.78698 1.501885,-0.25387 -2.028864,-1.90402 z"
     id="path215" />
  <path
     style="fill:#1a1a1a;stroke-width:0.105183"
     d="m 72.584892,139.68223 0.474281,1.04085 1.264746,0.0508 -0.474279,-0.91392 1.238398,0.0508 -1.317445,-1.19318 z"
     id="path216" />
  <path
     style="fill:#000000;stroke-width:0.105183"
     d="m 73.032824,139.83454 0.237139,0.50773 0.685072,0.10157 -0.606024,-0.83777 1.027607,0.0508 -0.685072,-0.60928 z"
     id="path217" />
  <path
     style="fill:#cccccc;stroke-width:0.105183"
     d="m 48.370263,147.72984 -3.319959,-3.50336 5.480569,0.71082 -0.105396,0.55851 -3.214565,-0.40619 1.264747,2.03094 z"
     id="path218" />
  <path
     style="fill:#b3b3b3;stroke-width:0.105183"
     d="m 43.047788,143.28715 6.060244,6.47365 4.584706,-0.99009 -4.426612,2.03094 -8.010062,-8.30149 z"
     id="path219" />
  <path
     style="fill:#e6e6e6;stroke-width:0.105183"
     d="m 47.988969,146.75004 -1.192415,-1.86692 3.279141,0.43082 -0.03726,-0.25131 -4.173451,-0.46672 1.527781,1.8669 z"
     id="path220" />
  <path
     style="fill:#e6e6e6;stroke-width:0.105183"
     d="m 49.766755,147.72984 -0.71142,-1.49782 2.107911,0.0254 -0.05269,-0.22848 -2.60854,-0.35542 0.790467,1.90402 z"
     id="path221" />
  <path
     style="fill:#e6e6e6;stroke-width:0.105183"
     d="m 51.821968,146.3082 1.106654,1.52319 -2.002516,0.17772 -0.02635,-0.25388 1.449189,-0.20308 -0.685072,-0.9901 z"
     id="path222" />
  <path
     style="fill:#f2f2f2;stroke-width:0.105183"
     d="m 50.056592,146.76516 0.342536,0.68543 1.1857,-0.20309 -0.500629,-0.53313 z"
     id="path223" />
  <path
     style="fill:#cccccc;stroke-width:0.105183"
     d="m 43.179533,143.76949 5.770406,6.01669 -0.23714,0.10157 -5.770406,-5.91513 z"
     id="path224" />
  <path
     style="fill:#cccccc;stroke-width:0.105183"
     d="m 48.949939,149.98928 0.289838,0.43157 3.188215,-1.1424 z"
     id="path225" />
  <path
     style="fill:#b3b3b3;stroke-width:0.105183"
     d="m 105.12577,197.99575 12.06779,-9.79931 -14.33379,-2.08172 -1.10666,-0.0508 3.26727,10.45937 -1.31744,0.50774 -3.05648,-11.83026 20.28864,1.11702 -15.91472,14.41971 -0.84317,-2.48791 z"
     id="path226" />
  <path
     style="fill:#cccccc;stroke-width:0.105183"
     d="m 104.91497,198.90968 0.47429,0.91392 14.38649,-12.94727 -0.79047,-0.10157 -1.37013,1.52322 z"
     id="path227" />
  <path
     style="fill:#cccccc;stroke-width:0.105183"
     d="m 118.08943,186.41935 -0.79047,1.11702 -14.43919,-1.5232 -0.0527,-0.4062 z"
     id="path228" />
  <path
     style="fill:#cccccc;stroke-width:0.105183"
     d="m 101.48962,185.9624 3.16187,10.15472 -0.89586,0.20309 -2.4768,-9.90086 z"
     id="path229" />
  <path
     style="fill:#ffffff;stroke-width:0.105183"
     d="m 107.01349,190.87406 0.22358,1.07707 1.7141,-0.86166 z"
     id="path230" />
  <path
     style="fill:#cccccc;stroke-width:0.105183"
     d="m 131.89624,149.86234 -0.31619,9.74854 6.11295,-8.98692 z"
     id="path231" />
  <path
     style="fill:#e6e6e6;stroke-width:0.105183"
     d="m 132.42322,150.97937 -0.26349,6.54979 4.37391,-6.39748 -4.532,-0.25387 z"
     id="path232" />
  <path
     style="fill:#b3b3b3;stroke-width:0.105183"
     d="m 135.11081,158.90004 -3.16187,5.58511 1.31744,0.66006 z"
     id="path233" />
  <path
     style="fill:#b3b3b3;stroke-width:0.105183"
     d="m 129.63024,147.17133 -0.42158,8.88539 1.05395,-8.88539 z"
     id="path234" />
  <path
     style="fill:#b3b3b3;stroke-width:0.105183"
     d="m 132.63401,147.37443 -0.15809,0.76161 5.00629,0.30463 z"
     id="path235" />
  <path
     style="fill:#b3b3b3;stroke-width:0.105183"
     d="m 130.36801,163.9774 -0.68507,0.20311 0.57967,-7.51451 z"
     id="path236" />
  <path
     style="fill:#f9f9f9;stroke-width:0.105183"
     d="m 132.7921,151.38555 -0.10539,4.56962 2.79298,-4.31576 z"
     id="path237" />
  <path
     style="fill:#cccccc;stroke-width:0.105183"
     d="m 133.84606,161.79414 -1.37014,2.1325 0.73777,0.30463 z"
     id="path238" />
  <path
     style="fill:#cccccc;stroke-width:0.105183"
     d="m 133.05559,147.72984 -0.0884,0.33064 1.50915,0.0898 z"
     id="path239" />
  <path
     style="fill:#cccccc;stroke-width:0.105183"
     d="m 130.02337,147.55784 -0.13042,1.84898 -0.27948,-0.0538 0.14906,-1.59767 z"
     id="path240" />
  <path
     style="fill:#cccccc;stroke-width:0.105183"
     d="m 130.15379,160.6622 0.11179,3.21326 -0.31674,-0.018 z"
     id="path241" />
  <path
     style="fill:#999999;stroke-width:0.105183"
     d="m 140.96026,150.26852 -6.48183,17.82155 -6.11294,-1.87862 -0.68507,1.37089 7.1669,2.89409 4.63741,-8.17455 1.37013,-4.36654 0.57968,-4.11265 0.26348,-3.30029 -0.10539,-2.94487 z"
     id="path242" />
  <path
     style="fill:#999999;stroke-width:0.105183"
     d="m 141.53993,146.61282 -15.12426,-4.67118 0.47429,24.67599 0.89585,-0.0508 -0.15809,-21.93422 13.22714,3.19875 z"
     id="path243" />
  <path
     style="fill:#999999;stroke-width:0.105183"
     d="m 128.83977,166.71918 5.90215,1.87864 6.63991,-18.17697 -0.79046,7.92069 -1.05395,3.55414 -3.84694,6.7529 -1.00125,1.47244 -6.11295,-2.58946 z"
     id="path244" />
  <path
     style="fill:#b3b3b3;stroke-width:0.105183"
     d="m 141.36993,149.47862 -6.6328,18.95647 -5.77576,-1.68743 -0.40989,0.75394 6.11113,2.51318 4.24797,-7.3959 1.52778,-4.48778 z"
     id="path245" />
  <path
     style="fill:#b3b3b3;stroke-width:0.105183"
     d="m 140.92278,146.85774 -14.04813,-4.23648 0.26084,23.73148 h 0.44716 l -0.18632,-22.33127 13.19108,3.4466 z"
     id="path246" />
  <path
     style="fill:#cccccc;stroke-width:0.105183"
     d="m 140.62467,152.67393 -5.3286,15.00719 0.2981,0.25132 2.98104,-5.13404 1.56504,-4.6673 z"
     id="path247" />
  <path
     style="fill:#cccccc;stroke-width:0.105183"
     d="m 129.37127,167.07078 -0.37263,0.43082 5.47765,2.22597 0.67073,-0.78985 z"
     id="path248" />
  <path
     style="fill:#cccccc;stroke-width:0.105183"
     d="m 127.76896,143.1957 12.74393,3.69794 -0.0745,0.39493 -13.07929,-3.48253 z"
     id="path249" />
  <path
     style="fill:#e6e6e6;stroke-width:0.105183"
     d="m 139.48473,156.56446 -3.53076,10.10396 3.31996,-6.60059 z"
     id="path250" />
  <path
     style="fill:#e6e6e6;stroke-width:0.105183"
     d="m 139.80091,155.95517 -0.13175,2.74178 0.39524,-0.48235 0.23713,-3.63032 z"
     id="path251" />
  <path
     style="fill:#f9f9f9;stroke-width:0.105183"
     d="m 139.11584,158.4177 -1.84443,5.0012 1.76538,-3.27489 z"
     id="path252" />
  <path
     style="fill:#999999;stroke-width:0.105183"
     d="m 139.53742,150.82704 -2.58219,7.46371 1.00126,-6.24515 z"
     id="path253" />
  <path
     style="fill:#b3b3b3;stroke-width:0.105183"
     d="m 138.19362,152.57874 -0.47427,2.4625 1.133,-2.97025 z"
     id="path254" />
  <path
     style="fill:#e6e6e6;stroke-width:0.105183"
     d="m 113.10948,143.89644 -5.03264,-4.79811 4.87455,5.58511 z"
     id="path255" />
  <path
     style="fill:#cccccc;stroke-width:0.105183"
     d="m 95.722819,127.00372 4.024398,3.73385 0.03726,0.78984 -3.50272,-3.55432 z"
     id="path256" />
  <path
     style="fill:#cccccc;stroke-width:0.105183"
     d="m 99.69132,131.45562 2.88788,3.1235 -2.831983,-3.8236 z"
     id="path257" />
  <path
     style="fill:#e6e6e6;stroke-width:0.105183"
     d="m 97.008388,128.368 2.757463,2.56703 1.006099,1.47201 -1.229679,-1.31044 z"
     id="path258" />
  <path
     style="fill:#999999;stroke-width:0.105183"
     d="m 115.55993,144.53111 0.68507,0.15233 -0.21079,10.96708 -0.84317,-5.53431 -0.52697,-0.76161 z"
     id="path259" />
  <path
     style="fill:#b3b3b3;stroke-width:0.105183"
     d="m 115.99386,145.56526 v 4.16467 l -0.96883,-0.39492 z"
     id="path260" />
  <path
     style="fill:#b3b3b3;stroke-width:0.105183"
     d="m 115.91934,150.08895 0.0373,2.97991 -0.63347,-2.94399 z"
     id="path261" />
  <path
     style="fill:#cccccc;stroke-width:0.105183"
     d="m 115.73302,147.50399 -0.40989,1.61561 0.55894,0.1436 z"
     id="path262" />
  <path
     style="fill:#cccccc;stroke-width:0.105183"
     d="m 115.73302,150.30436 -0.24221,0.009 0.36332,1.56176 z"
     id="path263" />
  <path
     style="fill:#999999;stroke-width:0.105183"
     d="m 115.21739,163.9774 -3.03012,4.56963 3.82059,1.11702 -0.079,-6.57519 z"
     id="path264" />
  <path
     style="fill:#b3b3b3;stroke-width:0.105183"
     d="m 115.37549,164.25666 -2.63489,4.06189 c 0,0 2.97742,1.04087 2.97742,0.93931 0,-0.10157 -0.34253,-5.0012 -0.34253,-5.0012 z"
     id="path265" />
  <path
     style="fill:#cccccc;stroke-width:0.105183"
     d="m 115.0593,165.29752 -1.65998,2.9195 2.05522,0.66004 z"
     id="path266" />
  <path
     style="fill:#e6e6e6;stroke-width:0.105183"
     d="m 114.82216,166.26223 -1.00126,1.72629 1.31745,0.38081 z"
     id="path267" />
  <path
     style="fill:#808080;stroke-width:0.105183"
     d="m 114.83871,162.6548 -4.6206,6.67783 5.96207,0.89756 -0.0745,0.71805 -8.08606,-0.78984 7.22902,-9.33463 h 0.33536 l -0.11179,1.3643 z"
     id="path268" />
  <path
     style="fill:#999999;stroke-width:0.105183"
     d="m 115.29644,161.18486 -0.0527,0.83776 -0.73777,0.63468 -4.6374,6.65134 5.95485,1.01548 -0.0264,0.43156 -7.14055,-0.86315 z"
     id="path269" />
  <path
     style="fill:#b3b3b3;stroke-width:0.105183"
     d="m 109.60508,169.46096 5.90215,0.86316 v 0.27925 l -6.48182,-0.86315 z"
     id="path270" />
  <path
     style="fill:#b3b3b3;stroke-width:0.105183"
     d="m 109.46016,169.15632 4.26852,-5.82628 -3.84693,5.90244 z"
     id="path271" />
  <path
     style="fill:#b3b3b3;stroke-width:0.105183"
     d="m 115.12518,161.55298 -0.73778,0.93931 0.75095,-0.46967 z"
     id="path272" />
  <path
     style="fill:#b3b3b3;stroke-width:0.105183"
     d="m 114.25566,162.77154 -0.48745,0.60929 0.13174,0.0128 z"
     id="path273" />
  <path
     style="fill:#cccccc;stroke-width:0.105183"
     d="m 109.75,169.62598 5.65184,0.72352 -0.0395,0.1777 -5.50692,-0.77429 z"
     id="path274" />
  <path
     style="fill:#cccccc;stroke-width:0.105183"
     d="m 109.75,169.02937 1.21205,-1.78976 -1.0803,1.89132 z"
     id="path275" />
  <path
     style="fill:#808080;stroke-width:0.105183"
     d="m 116.59007,170.94824 0.78253,0.10765 -0.14906,-28.00386 -0.63347,0.0718 z"
     id="path276" />
  <path
     style="fill:#999999;stroke-width:0.105183"
     d="m 116.81365,143.44702 0.0745,27.28581 0.33537,-0.0359 -0.13973,-27.22299 z"
     id="path277" />
  <path
     style="fill:#b3b3b3;stroke-width:0.105183"
     d="m 116.99065,170.52639 -0.0932,-26.89088 0.11179,0.009 0.11179,26.92678 z"
     id="path278" />
  <path
     style="fill:#808080;stroke-width:0.105183"
     d="m 91.512102,120.11046 c 0.03726,0.14362 0.186316,5.888 0.186316,5.888 l 2.64567,-3.87745 z"
     id="path279" />
  <path
     style="fill:#999999;stroke-width:0.105183"
     d="m 91.996521,121.33115 0.111789,3.30301 1.676831,-2.22593 z"
     id="path280" />
  <path
     style="fill:#b3b3b3;stroke-width:0.105183"
     d="m 92.294625,122.08511 0.03726,1.36428 0.968839,-1.00527 z"
     id="path281" />
  <path
     style="fill:#999999;stroke-width:0.105183"
     d="m 94.120508,123.7366 c -0.03726,0.14362 -1.266939,2.22595 -1.266939,2.22595 l 0.819784,0.50265 1.155151,-2.19007 z"
     id="path282" />
  <path
     style="fill:#808080;stroke-width:0.105183"
     d="m 116.56119,142.55093 -20.973719,-19.80171 -0.579673,0.35541 21.079112,19.85249 z"
     id="path283" />
  <path
     style="fill:#999999;stroke-width:0.105183"
     d="m 95.797344,123.12627 20.475996,19.36934 -0.22358,0.19746 -20.531893,-19.38729 z"
     id="path284" />
  <path
     style="fill:#999999;stroke-width:0.105183"
     d="m 115.99386,143.55472 -20.569145,-19.17187 -0.372631,0.35901 20.420096,19.20778 z"
     id="path285" />
  <path
     style="fill:#b3b3b3;stroke-width:0.105183"
     d="m 115.56534,143.46497 -19.693472,-18.50769 -0.204946,0.0718 19.712108,18.56154 z"
     id="path286" />
  <path
     style="fill:#808080;stroke-width:0.105183"
     d="m 114.35429,150.6993 -22.171457,-24.27002 -0.409891,0.43083 22.059668,24.30593 z"
     id="path287" />
  <path
     style="fill:#999999;stroke-width:0.105183"
     d="m 113.86988,150.51978 -21.388943,-23.48015 -0.298104,0.0718 21.314417,23.37245 z"
     id="path288" />
  <path
     style="fill:#b3b3b3;stroke-width:0.105183"
     d="m 92.331885,117.59731 0.857048,0.21541 -0.484416,0.71805 -0.782523,-0.82576 z"
     id="path289" />
  <path
     style="fill:#cccccc;stroke-width:0.105183"
     d="m 85.028349,111.78112 0.558943,0.78985 -0.857047,-0.50263 z"
     id="path290" />
  <path
     style="fill:#cccccc;stroke-width:0.105183"
     d="m 92.518201,117.77682 0.372632,0.1795 -0.298104,0.28722 z"
     id="path291" />
  <path
     style="fill:#808080;stroke-width:0.105183"
     d="m 81.965095,112.1883 11.830652,7.97146 -0.579675,0.45697 -12.489373,-8.6823 0.237141,-0.33003 z"
     id="path292" />
  <path
     style="fill:#999999;stroke-width:0.105183"
     d="m 93.347818,120.0836 -11.988747,-8.14917 -0.158091,0.15232 11.857001,8.17456 z"
     id="path293" />
  <path
     style="fill:#999999;stroke-width:0.105183"
     d="m 115.62123,154.16388 0.33538,1.81307 0.27947,0.018 -0.0187,-1.66948 0.11178,-0.018 -0.0373,6.65989 -0.46578,-0.0898 0.2981,-2.208 -0.708,-4.27238 z"
     id="path294" />
  <path
     style="fill:#b3b3b3;stroke-width:0.105183"
     d="m 115.88207,156.26416 0.22358,1.75923 0.14906,-1.86694 z"
     id="path295" />
  <path
     style="fill:#b3b3b3;stroke-width:0.105183"
     d="m 116.19881,159.01071 -0.22358,1.70534 0.22358,0.0538 z"
     id="path296" />
  <path
     style="fill:#999999;stroke-width:0.105183"
     d="m 116.08691,164.33282 c 0,-0.1777 -0.0791,-1.67552 -0.0791,-1.67552 l -1.1857,1.7009 -0.36888,-0.0254 1.58093,-2.36097 h 0.31618 l -0.0264,2.33559 z"
     id="path297" />
  <path
     style="fill:#999999;stroke-width:0.105183"
     d="m 114.24249,164.68823 -2.89838,4.13807 3.79424,0.91392 0.0264,-0.15233 -3.31996,-0.86314 2.66124,-3.93495 z"
     id="path298" />
  <path
     style="fill:#999999;stroke-width:0.105183"
     d="m 116.11326,164.71362 v 5.15353 l 0.23713,0.0762 -0.0264,-5.2297 z"
     id="path299" />
  <path
     style="fill:#b3b3b3;stroke-width:0.105183"
     d="m 116.1923,164.1678 -0.0922,-1.77707 -1.22521,1.81516 -0.17128,-0.0128 1.44919,-2.1071 0.13175,-0.0128 z"
     id="path300" />
  <path
     style="fill:#b3b3b3;stroke-width:0.105183"
     d="m 114.15027,164.94211 c -0.0264,0.0508 -2.5295,3.75725 -2.5295,3.75725 h 0.14492 l 2.46362,-3.60493 z"
     id="path301" />
  <path
     style="fill:#b3b3b3;stroke-width:0.105183"
     d="m 114.99343,169.61327 -3.08282,-0.81237 -0.0395,0.0762 z"
     id="path302" />
  <path
     style="fill:#b3b3b3;stroke-width:0.105183"
     d="m 116.17913,164.92941 c 0,0.0508 -0.0132,4.83619 -0.0132,4.83619 l 0.13174,0.038 -0.0264,-4.76002 z"
     id="path303" />
  <path
     style="fill:#999999;stroke-width:0.105183"
     d="m 84.692981,108.83712 -2.235779,2.87219 10.880783,7.6831 0.857052,-1.6874 -4.061667,-1.14887 z"
     id="path304" />
  <path
     style="fill:#b3b3b3;stroke-width:0.105183"
     d="m 84.804769,109.84239 5.067762,6.53423 -6.744593,-4.66731 z"
     id="path305" />
  <path
     style="fill:#b3b3b3;stroke-width:0.105183"
     d="m 90.655054,116.95106 3.241879,0.89755 -0.708,1.07707 z"
     id="path306" />
  <path
     style="fill:#cccccc;stroke-width:0.105183"
     d="m 84.842033,110.70404 -1.080627,0.89757 5.179553,3.94925 z"
     id="path307" />
  <path
     style="fill:#cccccc;stroke-width:0.105183"
     d="m 93.449777,117.95632 -0.372632,0.50263 -1.639567,-1.11296 z"
     id="path308" />
  <path
     style="fill:#e6e6e6;stroke-width:0.105183"
     d="m 84.879297,111.38618 2.794719,2.944 -3.204611,-2.62087 z"
     id="path309" />
  <path
     style="fill:#e6e6e6;stroke-width:0.105183"
     d="m 92.369149,117.7409 0.74526,0.28723 -0.149052,0.21541 z"
     id="path310" />
  <path
     style="fill:#808080;stroke-width:0.105183"
     d="m 81.596214,110.94434 3.26726,-3.80801 5.744058,8.93615 0.368885,-0.15232 -6.191987,-10.0024 z"
     id="path311" />
  <path
     style="fill:#808080;stroke-width:0.105183"
     d="m 93.980193,119.47432 1.343791,-2.15789 -3.451704,-0.71082 4.268519,0.25386 -1.818075,2.7164 z"
     id="path312" />
  <path
     style="fill:#999999;stroke-width:0.105183"
     d="m 90.712929,115.76785 -5.875801,-9.41852 -2.18696,3.14797 2.266004,-2.56408 5.585966,8.70768 z"
     id="path313" />
  <path
     style="fill:#999999;stroke-width:0.105183"
     d="m 93.268771,116.78331 2.529492,0.17771 -0.158091,0.30463 z"
     id="path314" />
  <path
     style="fill:#999999;stroke-width:0.105183"
     d="m 94.29638,119.322 1.106653,-1.82785 0.184438,0.0254 z"
     id="path315" />
  <path
     style="fill:#b3b3b3;stroke-width:0.105183"
     d="m 93.967018,124.43744 -0.685073,1.43436 0.40841,0.11428 0.882683,-1.66283 -0.474278,-0.12691 z"
     id="path316" />
  <path
     style="fill:#666666;stroke-width:0.105183"
     d="M 113.49725,152.81754 90.543266,127.11143 v -7.25228 l -11.178888,-7.89853 4.844183,-6.89325 -1.788619,-1.5079 -4.098927,8.83198 11.700567,7.82673 -0.223576,6.0316 0.677784,1.3737 12.06779,15.63829 11.64621,16.09524 -10.53956,11.77948 4.11043,3.35106 11.8043,-1.7263 -1.00126,-31.17502 -22.923528,-20.71564 2.582188,-5.53432 -6.798013,-0.30465 0.316186,0.76161 5.480567,0.55852 -2.687581,4.21419 1.37014,1.72632 21.974971,20.15713 0.1054,29.49948 -11.9097,-1.01547 8.69513,-10.8148 z"
     id="path317" />
  <path
     style="fill:#808080;stroke-width:0.105183"
     d="m 104.5461,171.13649 13.91221,1.32013 -10.43416,1.3201 z"
     id="path318" />
  <path
     style="fill:#808080;stroke-width:0.105183"
     d="m 119.30147,172.20274 -0.94856,-30.2611 -0.36888,-0.0508 0.42158,30.15954 z"
     id="path319" />
  <path
     style="fill:#808080;stroke-width:0.105183"
     d="m 96.325244,122.03838 21.816876,19.59863 -0.31619,0.35541 -12.59477,-11.47483 -7.114196,-6.60058 -1.422837,-1.21856 z"
     id="path320" />
  <path
     style="fill:#808080;stroke-width:0.105183"
     d="m 92.122593,115.19664 5.533269,0.31733 -0.474286,0.63467 -5.111681,-0.54581 z"
     id="path321" />
  <path
     style="fill:#808080;stroke-width:0.105183"
     d="m 95.468905,120.88329 -0.698247,-0.36811 2.792985,-4.43 z"
     id="path322" />
  <path
     style="fill:#999999;stroke-width:0.105183"
     d="m 92.648623,115.35339 -0.0559,0.21544 4.415662,0.35901 0.260836,-0.32313 z"
     id="path323" />
  <path
     style="fill:#999999;stroke-width:0.105183"
     d="m 95.126611,120.36178 1.471887,-2.49521 -1.117893,2.71063 z"
     id="path324" />
  <path
     style="fill:#b3b3b3;stroke-width:0.105183"
     d="m 92.965357,115.44316 4.005769,0.23337 -0.07452,0.16156 z"
     id="path325" />
  <path
     style="fill:#b3b3b3;stroke-width:0.105183"
     d="m 95.946399,119.15905 -0.633477,1.07707 0.149055,0.14361 z"
     id="path326" />
  <path
     style="fill:#999999;stroke-width:0.105183"
     d="m 118.63953,171.82786 0.4658,0.0898 -0.85706,-29.83488 -0.20495,-0.018 z"
     id="path327" />
  <path
     style="fill:#b3b3b3;stroke-width:0.105183"
     d="m 119.0308,171.68425 -0.83598,-29.52681 h -0.10539 l 0.14492,5.83896 0.47427,23.73033 z"
     id="path328" />
  <path
     style="fill:#999999;stroke-width:0.105183"
     d="m 105.5737,171.44114 11.19828,1.01548 -8.53704,0.99007 z"
     id="path329" />
  <path
     style="fill:#b3b3b3;stroke-width:0.105183"
     d="m 106.2496,171.7022 2.10536,1.48994 6.94954,-0.71804 z"
     id="path330" />
  <path
     style="fill:#cccccc;stroke-width:0.105183"
     d="m 106.88307,171.88172 1.47189,1.04115 5.45902,-0.43083 z"
     id="path331" />
  <path
     style="fill:#e6e6e6;stroke-width:0.105183"
     d="m 107.53518,172.09713 0.83841,0.66418 3.42819,-0.26927 z"
     id="path332" />
  <path
     style="fill:#f2f2f2;stroke-width:0.105183"
     d="m 108.09412,172.27663 0.37262,0.37698 1.63958,-0.1436 z"
     id="path333" />
  <path
     style="fill:#808080;stroke-width:0.105183"
     d="m 104.3353,170.83185 1.47554,0.15233 8.72149,-10.84017 -0.39524,-0.43158 z"
     id="path334" />
  <path
     style="fill:#999999;stroke-width:0.105183"
     d="m 113.89995,160.22017 -9.09036,10.48475 0.94855,0.20309 8.48435,-10.56091 z"
     id="path335" />
  <path
     style="fill:#b3b3b3;stroke-width:0.105183"
     d="m 105.1126,170.60337 0.57967,0.11429 5.21708,-6.44826 3.12234,-3.79531 -0.15809,-0.0762 z"
     id="path336" />
  <path
     style="fill:#cccccc;stroke-width:0.105183"
     d="m 111.6603,163.0254 -6.32374,7.5145 0.34253,0.0762 z"
     id="path337" />
  <path
     style="fill:#cccccc;stroke-width:0.105183"
     d="m 109.68711,165.69752 4.2014,-5.12507 -0.0931,-0.018 z"
     id="path338" />
  <path
     style="fill:#e6e6e6;stroke-width:0.105183"
     d="m 105.5737,170.45105 2.89838,-3.54145 -2.74029,3.55415 z"
     id="path339" />
  <path
     style="fill:#808080;stroke-width:0.105183"
     d="m 114.41019,159.10046 -1.22968,-5.9957 -22.376404,-25.58045 -0.186316,0.0898 8.067431,10.35784 4.844189,6.24702 5.42176,7.59335 z"
     id="path340" />
  <path
     style="fill:#999999;stroke-width:0.105183"
     d="m 100.90995,139.40297 -0.52698,0.50774 4.71645,6.09282 8.93227,12.16029 -1.0803,-4.92504 z"
     id="path341" />
  <path
     style="fill:#b3b3b3;stroke-width:0.105183"
     d="m 100.77821,140.06302 6.9034,8.86001 5.90215,8.37765 -0.86951,-3.90959 -11.17192,-13.04882 z"
     id="path342" />
</svg>
